# xmcd
#
# Track frame offsets:
#	150
#	3946
#	31869
#	58409
#	71557
#	97282
#	120039
#	142486
#	170044
#	181339
#	207191
#	225206
#	257524
#
# Disc length: 3807 seconds
#
# Revision: 18
# Processed by: cddbd v1.5.2PL0 Copyright (c) Steve Scherf et al.
# Submitted via: Jack! The Knife 20 Magnifico
#
DISCID=b20edd0d
DTITLE=Solitude Aeturnus - Adagio
DYEAR=1998
DGENRE=Metal
TTITLE0=My Endtime
TTITLE1=Days Of Prayer
TTITLE2=Believe
TTITLE3=Never
TTITLE4=Idis
TTITLE5=Personal God
TTITLE6=Mental Pictures
TTITLE7=Insanity's Circles
TTITLE8=The Fall
TTITLE9=Lament
TTITLE10=Empty Faith
TTITLE11=Spiral Descent
TTITLE12=Heaven And Hell
EXTD=Paul Johnston and Solitude Aeturnus
EXTT0=Lowe, Rivera, Perez, Moseley, Covington
EXTT1=Lowe, Rivera, Perez, Moseley, Covington
EXTT2=Lowe, Rivera, Perez, Moseley, Covington
EXTT3=Lowe, Rivera, Perez, Moseley, Covington
EXTT4=Lowe, Rivera, Perez, Moseley, Covington
EXTT5=Lowe, Rivera, Perez, Moseley, Covington
EXTT6=Lowe, Rivera, Perez, Moseley, Covington
EXTT7=Lowe, Rivera, Perez, Moseley, Covington
EXTT8=Lowe, Rivera, Perez, Moseley, Covington
EXTT9=Lowe, Rivera, Perez, Moseley, Covington
EXTT10=Lowe, Rivera, Perez, Moseley, Covington
EXTT11=Lowe, Rivera, Perez, Moseley, Covington
EXTT12=Iommi, Dio, Butler, Ward
PLAYORDER=
